<?xml version="1.0" encoding="iso-8859-1"?>
<!-- Generator: Adobe Illustrator 21.1.0, SVG Export Plug-In . SVG Version: 6.00 Build 0)  -->
<svg version="1.1" id="Layer_1" xmlns="http://www.w3.org/2000/svg" xmlns:xlink="http://www.w3.org/1999/xlink" x="0px" y="0px"
	 viewBox="0 0 24 24" enable-background="new 0 0 24 24" xml:space="preserve">
<g>
	<path fill="#303C42" d="M20.5,6H15V2c0-1.1030273-0.8974609-2-2-2H5C3.8974609,0,3,0.8969727,3,2v20c0,1.1030273,0.8974609,2,2,2h8
		c1.1025391,0,2-0.8969727,2-2V10h5.5c0.2763672,0,0.5-0.2236328,0.5-0.5v-3C21,6.2236328,20.7763672,6,20.5,6z"/>
	<path fill="#90A4AE" d="M14,22c0,0.5512695-0.4482422,1-1,1H5c-0.5517578,0-1-0.4487305-1-1V2c0-0.5512695,0.4482422-1,1-1h8
		c0.5517578,0,1,0.4487305,1,1v4h-2.7763672C10.6542969,5.3613281,9.8564453,5,9,5C7.3457031,5,6,6.3457031,6,8s1.3457031,3,3,3
		c0.8564453,0,1.6542969-0.3613281,2.2236328-1H14V22z"/>
	<path fill="#FFCB29" d="M20,9h-9.0117188c-0.1572266,0-0.3046875,0.0737305-0.3994141,0.1987305
		C10.2050781,9.7080078,9.6259766,10,9,10c-1.1025391,0-2-0.8969727-2-2s0.8974609-2,2-2
		c0.6259766,0,1.2050781,0.2919922,1.5888672,0.8012695C10.6835938,6.9262695,10.8310547,7,10.9882813,7H20V9z"/>
	<path fill="#303C42" d="M11,16c0-1.1030273-0.8974609-2-2-2s-2,0.8969727-2,2c0,0.6464844,0.3066406,1.2358398,0.8183594,1.6083984
		l-0.3154297,2.8364258c-0.015625,0.1411133,0.0292969,0.2827148,0.1240234,0.3886719C7.7226563,20.9394531,7.8574219,21,8,21h2
		c0.1425781,0,0.2773438-0.0605469,0.3730469-0.1665039c0.0947266-0.105957,0.1396484-0.2475586,0.1240234-0.3886719
		l-0.3134766-2.8227539C10.6240234,17.3398438,11,16.8911133,11,16z"/>
	<path fill="#5C6771" d="M9.4316406,16.8964844c-0.1904297,0.0927734-0.3027344,0.2949219-0.2792969,0.5053711L9.4414063,20
		H8.5585938l0.2890625-2.5981445c0.0234375-0.2104492-0.0888672-0.4125977-0.2792969-0.5053711
		C8.2177734,16.7265625,8,16.3833008,8,16c0-0.5512695,0.4482422-1,1-1s1,0.4487305,1,1
		C10,16.5600586,9.8183594,16.7094727,9.4316406,16.8964844z"/>
	<path opacity="0.2" fill="#010101" d="M8.6116943,16.9376221C8.5444946,16.8032227,8.5,16.6569824,8.5,16.5
		c0-0.5512695,0.4482422-1,1-1c0.1462402,0,0.2828369,0.0350342,0.4080811,0.0916138C9.7510986,15.2445679,9.4053345,15,9,15
		c-0.5517578,0-1,0.4487305-1,1c0,0.3833008,0.2177734,0.7265625,0.5683594,0.8964844
		C8.5871582,16.9056396,8.5944824,16.9264526,8.6116943,16.9376221z"/>
	<linearGradient id="SVGID_1_" gradientUnits="userSpaceOnUse" x1="9.0577393" y1="8.6445313" x2="15.793396" y2="15.380188">
		<stop  offset="0" style="stop-color:#010101;stop-opacity:0.1"/>
		<stop  offset="1" style="stop-color:#010101;stop-opacity:0"/>
	</linearGradient>
	<path fill="url(#SVGID_1_)" d="M14,10h-2.7763672C10.6542969,10.6386719,9.8564453,11,9,11
		c-0.6480713,0-1.2446289-0.2113647-1.7356567-0.5620728L14,17.173584V10z"/>
	<path opacity="0.1" fill="#010101" d="M7,8c0,1.1030273,0.8974609,2,2,2c0.6259766,0,1.2050781-0.2919922,1.5888672-0.8012695
		C10.6835938,9.0737305,10.8310547,9,10.9882813,9H20V8H7z"/>
	<linearGradient id="SVGID_2_" gradientUnits="userSpaceOnUse" x1="0.071681" y1="7.8366566" x2="17.941803" y2="16.169632">
		<stop  offset="0" style="stop-color:#FFFFFF;stop-opacity:0.2"/>
		<stop  offset="1" style="stop-color:#FFFFFF;stop-opacity:0"/>
	</linearGradient>
	<path fill="url(#SVGID_2_)" d="M20.5,6H15V2c0-1.1030273-0.8974609-2-2-2H5C3.8974609,0,3,0.8969727,3,2v20
		c0,1.1030273,0.8974609,2,2,2h8c1.1025391,0,2-0.8969727,2-2V10h5.5c0.2763672,0,0.5-0.2236328,0.5-0.5v-3
		C21,6.2236328,20.7763672,6,20.5,6z"/>
</g>
<g>
</g>
<g>
</g>
<g>
</g>
<g>
</g>
<g>
</g>
<g>
</g>
<g>
</g>
<g>
</g>
<g>
</g>
<g>
</g>
<g>
</g>
<g>
</g>
<g>
</g>
<g>
</g>
<g>
</g>
</svg>
