<?xml version="1.0" encoding="iso-8859-1"?>
<!-- Generator: Adobe Illustrator 19.0.0, SVG Export Plug-In . SVG Version: 6.00 Build 0)  -->
<svg version="1.1" id="Capa_1" xmlns="http://www.w3.org/2000/svg" xmlns:xlink="http://www.w3.org/1999/xlink" x="0px" y="0px"
	 viewBox="0 0 512.004 512.004" style="enable-background:new 0 0 512.004 512.004;" xml:space="preserve">
<path style="fill:#EEC8AD;" d="M302.548,162.91c0-25.67-20.876-46.545-46.545-46.545c-25.67,0-46.545,20.876-46.545,46.545v23.273
	c0,25.67,20.876,46.545,46.545,46.545c25.67,0,46.545-20.876,46.545-46.545V162.91z"/>
<path style="fill:#70B6E4;" d="M349.093,377.473V311.1c0-5.748-4.294-10.694-9.984-11.52l-44.241-6.319
	c-10.903-1.559-22.016-2.351-33.012-2.351h-11.718c-10.996,0-22.097,0.791-33.012,2.339l-44.23,6.319
	c-5.702,0.815-9.996,5.772-9.996,11.52v66.374c0,5.353,3.631,9.996,8.82,11.287l64.175,16.035c13.149,3.281,27.066,3.281,40.192,0
	l64.186-16.035C345.463,387.469,349.093,382.826,349.093,377.473z"/>
<path style="fill:#004463;" d="M256.002,430.547c-8.669,0-17.327-1.071-25.74-3.165l-64.175-16.035
	c-15.569-3.898-26.449-17.827-26.449-33.873V311.1c0-17.257,12.881-32.116,29.975-34.548l44.23-6.319
	c11.997-1.722,24.215-2.595,36.305-2.595h11.718c12.09,0,24.297,0.873,36.294,2.583l44.241,6.319
	c17.082,2.444,29.964,17.292,29.964,34.56v66.374c0,16.047-10.88,29.975-26.438,33.873l0,0l-64.186,16.035
	C273.329,429.488,264.671,430.547,256.002,430.547z M250.149,290.91c-10.996,0-22.097,0.791-33.012,2.339l-44.23,6.319
	c-5.702,0.815-9.996,5.772-9.996,11.52v66.374c0,5.353,3.631,9.996,8.82,11.287l64.175,16.035c13.149,3.281,27.066,3.281,40.192,0
	l64.186-16.035c5.19-1.292,8.82-5.935,8.82-11.287v-66.374c0-5.748-4.294-10.694-9.984-11.52l-44.241-6.319
	c-10.915-1.548-22.028-2.339-33.024-2.339H250.149z M343.1,400.048h0.116H343.1z"/>
<path style="fill:#4C9BD5;" d="M339.109,299.58l-1.652-0.233v48.698c0,10.682-7.273,19.991-17.629,22.575l-43.718,10.927
	c-13.196,3.293-27.008,3.293-40.204,0l-64.163-16.035c-5.201-1.303-8.832-5.946-8.832-11.299v23.249
	c0,5.341,3.631,9.996,8.82,11.299l64.163,16.035c13.196,3.305,27.008,3.305,40.204,0l61.359-15.325l0,0l2.828-0.71
	c5.178-1.303,8.809-5.946,8.809-11.287v-23.261v-43.124C349.093,305.351,344.799,300.394,339.109,299.58z"/>
<path style="fill:#D88A36;" d="M256.002,142.558c18.467,0,36.922,1.734,55.087,5.178c-8.052-25.367-29.673-43.008-55.087-43.008
	s-47.034,17.641-55.087,43.008C219.08,144.304,237.535,142.558,256.002,142.558z"/>
<path style="fill:#C77629;" d="M295.484,145.537c5.213,0.698,10.438,1.233,15.604,2.211c-8.064-25.379-29.673-43.02-55.087-43.02
	c-2.502,0-4.887,0.163-7.308,0.489C270.094,108.173,287.746,123.847,295.484,145.537z"/>
<g>
	<path style="fill:#004463;" d="M42.487,197.226c1.21,0.407,2.455,0.605,3.665,0.605c4.876,0,9.425-3.095,11.043-7.971
		c27.276-82.013,101.62-138.135,187.171-142.848v11.171c0,4.701,2.839,8.948,7.18,10.752c1.443,0.605,2.956,0.896,4.457,0.896
		c3.025,0,6.004-1.187,8.227-3.409l23.273-23.273c4.55-4.55,4.55-11.904,0-16.454L264.229,3.422c-3.34-3.34-8.332-4.34-12.684-2.525
		c-4.34,1.804-7.18,6.039-7.18,10.752v12.102C148.773,28.487,65.561,90.986,35.121,182.518
		C33.096,188.615,36.389,195.201,42.487,197.226z"/>
	<path style="fill:#004463;" d="M189.884,454.82C107.86,427.545,51.726,353.2,47.013,267.638h11.171
		c4.701,0,8.948-2.839,10.752-7.18c1.804-4.352,0.803-9.356-2.525-12.684l-23.273-23.273c-4.55-4.55-11.904-4.55-16.454,0
		L3.412,247.774c-3.328,3.328-4.329,8.332-2.525,12.684c1.804,4.352,6.051,7.18,10.752,7.18H23.74
		c4.736,95.604,67.247,178.816,158.813,209.257c1.21,0.407,2.455,0.605,3.665,0.605c4.876,0,9.425-3.095,11.043-7.971
		C199.287,463.431,195.982,456.833,189.884,454.82z"/>
	<path style="fill:#004463;" d="M470.123,312.519c-6.121-1.978-12.672,1.408-14.639,7.517
		c-26.694,83.258-101.329,140.218-187.846,144.954V453.82c0-4.701-2.839-8.948-7.18-10.752c-4.364-1.815-9.356-0.815-12.684,2.525
		l-23.273,23.273c-4.55,4.55-4.55,11.904,0,16.454l23.273,23.273c2.223,2.223,5.201,3.409,8.227,3.409
		c1.501,0,3.014-0.291,4.457-0.884c4.34-1.804,7.18-6.051,7.18-10.752v-12.102c96.675-4.759,180.201-68.189,210.013-161.105
		C479.618,321.037,476.244,314.486,470.123,312.519z"/>
	<path style="fill:#004463;" d="M511.118,251.556c-1.804-4.352-6.051-7.191-10.752-7.191h-12.102
		c-4.736-95.604-67.247-178.816-158.813-209.257c-6.086-2.048-12.684,1.268-14.708,7.366c-2.025,6.097,1.268,12.684,7.366,14.708
		c82.036,27.287,138.17,101.632,142.883,187.183H453.82c-4.701,0-8.948,2.839-10.752,7.18c-1.804,4.352-0.803,9.356,2.525,12.684
		l23.273,23.273c2.269,2.281,5.248,3.409,8.227,3.409s5.958-1.14,8.227-3.409l23.273-23.273
		C511.921,260.9,512.921,255.908,511.118,251.556z"/>
</g>
<path style="fill:#E1B597;" d="M290.911,168.135L290.911,168.135c-27.055-3.479-54.563-2.828-81.455,1.815v11.636
	c20.422-3.526,41.181-4.561,61.836-3.34c10.892,0.64,17.664,12.928,11.648,22.028c-8.285,12.532-22.435,20.817-38.575,20.817
	c-9.868,0-18.991-3.13-26.519-8.378c9.135,13.103,24.785,21.353,42.263,19.84c24.425-2.106,42.438-21.388,42.438-48.547v-2.42
	V169.95C298.673,169.276,294.809,168.636,290.911,168.135z"/>
<path style="fill:#004463;" d="M256.002,81.456c-42.752,0-77.754,34.618-81.42,80.524c-0.291,3.747,1.222,7.401,4.096,9.821
	c2.129,1.792,4.794,2.735,7.505,2.735v11.648c0,38.505,31.313,69.818,69.818,69.818c38.505,0,69.818-31.313,69.818-69.818v-11.636
	c2.711,0,5.376-0.954,7.505-2.746c2.874-2.42,4.387-6.074,4.096-9.821C333.756,116.074,298.754,81.456,256.002,81.456z
	 M256.002,104.729c25.414,0,47.034,17.641,55.087,43.008c-18.164-3.444-36.62-5.178-55.087-5.178
	c-18.467,0-36.922,1.734-55.087,5.178C208.968,122.369,230.588,104.729,256.002,104.729z M256.002,232.729
	c-25.67,0-46.545-20.876-46.545-46.545V169.95c30.755-5.306,62.336-5.306,93.091,0v16.233
	C302.548,211.853,281.672,232.729,256.002,232.729z"/>
<g>
</g>
<g>
</g>
<g>
</g>
<g>
</g>
<g>
</g>
<g>
</g>
<g>
</g>
<g>
</g>
<g>
</g>
<g>
</g>
<g>
</g>
<g>
</g>
<g>
</g>
<g>
</g>
<g>
</g>
</svg>
